<svg xmlns="http://www.w3.org/2000/svg" viewBox="0 0 2000 1150.0"><g fill="#f6f1dc" transform="translate(0 900.0) scale(1 -1)"><path transform="translate(0 0)" d="M697 107Q750 99 760 72Q765 57 747 48Q733 40 728.0 45.0Q723 50 705.0 47.0Q687 44 681.5 37.0Q676 30 664 30Q659 30 657.5 33.0Q656 36 659 48Q662 67 669.0 81.0Q676 95 676.0 102.5Q676 110 697 107ZM687 737Q708 734 715.0 719.5Q722 705 719 666Q715 627 708 601Q702 585 684.0 541.5Q666 498 655 481Q650 471 646 456Q643 447 644.0 445.0Q645 443 650 445Q659 447 699 459L779 481Q856 503 880 485Q887 480 886.5 477.0Q886 474 874 466Q860 453 832 445Q782 431 769.5 419.0Q757 407 751 368Q748 340 743 326Q739 316 739.5 313.0Q740 310 750 306Q762 302 768 302Q778 302 818.0 281.0Q858 260 858 256Q858 249 860.5 238.5Q863 228 848 218Q837 211 830.5 210.0Q824 209 807 215Q785 222 748 222Q708 222 708 230Q708 235 716 242Q729 251 722.5 257.5Q716 264 705 254Q695 244 671.5 232.5Q648 221 641 221Q634 221 610 208Q599 202 587.0 198.5Q575 195 568.0 196.0Q561 197 561.0 201.0Q561 205 610.5 244.5Q660 284 661.0 289.5Q662 295 624 309L576 327Q555 335 576 341Q587 344 604 344Q634 344 663 334L692 323L698 337Q705 349 711.5 376.0Q718 403 715.0 405.5Q712 408 687.5 400.5Q663 393 635.5 388.0Q608 383 594 380Q580 376 562.0 387.0Q544 398 547 410Q548 421 573.5 424.5Q599 428 611 431L625 435L628 519Q629 601 636 656Q641 695 641.0 704.0Q641 713 632 725Q621 740 621.0 742.0Q621 744 637.0 746.0Q653 748 656.5 749.0Q660 750 663.0 745.5Q666 741 687 737ZM361 755Q372 755 395.0 743.5Q418 732 428 729Q447 723 443 635L442 596L464 594Q485 593 495 601Q502 607 514.0 608.5Q526 610 566 607Q606 606 606 589Q606 580 589.5 572.0Q573 564 555 562Q527 559 496.5 555.0Q466 551 452 554Q443 557 440.5 555.5Q438 554 433 544Q428 531 428 519Q426 510 429.0 508.0Q432 506 442 506Q498 510 515.5 508.0Q533 506 551 496Q575 482 575.0 477.5Q575 473 555.5 447.0Q536 421 536.0 413.0Q536 405 515.0 370.0Q494 335 485 328Q475 321 467.0 322.0Q459 323 456 333Q453 342 444.5 340.0Q436 338 435 327Q433 314 419 306Q408 300 406.0 295.5Q404 291 405 278Q407 267 409.0 263.5Q411 260 417 261Q432 263 466.5 262.0Q501 261 512 257Q527 253 529.0 243.0Q531 233 519 225Q508 216 495.0 217.0Q482 218 449 229Q412 240 408.0 236.5Q404 233 403 195L401 158L445 160Q487 162 537.0 174.0Q587 186 612.5 189.5Q638 193 643 197Q649 201 678.5 196.0Q708 191 713 186Q723 176 693.0 166.0Q663 156 613 153Q587 152 578 146Q571 144 571.5 141.5Q572 139 585 132Q615 114 604 85Q599 68 599.5 30.0Q600 -8 607 -29L614 -48H694Q774 -50 795 -52Q810 -54 858.5 -67.0Q907 -80 914 -83Q918 -86 918.0 -103.5Q918 -121 905 -127Q855 -145 762 -92Q750 -85 736.0 -83.5Q722 -82 677 -82Q610 -85 604 -93Q594 -110 572 -93Q559 -85 538 -90L457 -111Q384 -129 281 -152Q258 -156 226.5 -156.0Q195 -156 181 -149Q152 -138 141 -97Q138 -90 140.0 -88.0Q142 -86 153 -87Q170 -87 193.0 -92.0Q216 -97 280.0 -86.5Q344 -76 377 -76Q414 -76 419.0 -70.0Q424 -64 411 -33Q398 2 387 13Q380 22 374.5 44.5Q369 67 373 71Q376 75 390.5 67.5Q405 60 415 60Q426 60 439.5 45.0Q453 30 452 20Q449 12 458.5 -19.5Q468 -51 475 -59Q487 -73 523 -61Q533 -57 537.0 -51.0Q541 -45 544 -30Q550 -5 550.0 44.0Q550 93 555.5 112.0Q561 131 559.5 135.0Q558 139 530 131Q496 120 442.5 108.0Q389 96 375 96Q351 96 331.5 106.0Q312 116 307 127Q305 139 311.0 145.0Q317 151 341 152L366 153L370 202Q376 251 372.5 254.5Q369 258 342 232Q295 181 256 180Q236 179 235 188Q229 212 274 240Q293 251 315.5 275.5Q338 300 338 309Q338 312 332.0 312.0Q326 312 316.5 309.0Q307 306 300 302Q285 292 275.0 292.5Q265 293 246 306Q232 317 227.0 324.0Q222 331 218 352Q211 384 198 400Q151 456 153 471Q155 480 169.0 482.5Q183 485 190 478Q202 466 306 485L366 495V519V541H337Q306 540 274 531Q235 522 191.5 522.5Q148 523 124 533Q106 541 94.0 552.5Q82 564 82 572Q82 579 230 586Q275 587 320 592L365 594L361 646Q358 697 353.5 708.5Q349 720 349 737Q349 748 351.5 751.5Q354 755 361 755ZM471 467Q467 467 446 464Q425 463 419.5 454.5Q414 446 415 421L417 391L439 390Q457 387 462.0 395.5Q467 404 473 439Q473 447 473.5 453.5Q474 460 473.5 463.5Q473 467 471 467ZM358 442Q347 442 309.5 433.0Q272 424 270 421Q268 419 276.0 390.0Q284 361 288 356Q291 354 328 363L366 375L368 408Q369 433 367.5 438.0Q366 443 358 442Z"/><path transform="translate(1000 0)" d="M408 332H440Q471 332 487.5 325.0Q504 318 539 314Q569 311 577.5 307.5Q586 304 587 296Q588 282 582.5 279.0Q577 276 551 276Q514 276 505.0 268.0Q496 260 496 225Q496 197 501.5 192.5Q507 188 538 197Q559 201 646 204Q647 204 651 204Q714 206 725.5 203.5Q737 201 738 183Q738 181 738 181L740 169L644 170Q549 171 521 162L493 152L488 113Q482 72 489 47Q503 -5 528 -19Q546 -29 603.0 -29.5Q660 -30 717 -22Q759 -15 774.5 -10.5Q790 -6 804 5Q819 16 825.0 17.5Q831 19 836 15Q845 8 873 8Q891 8 896.5 5.0Q902 2 907.5 -7.0Q913 -16 913.0 -19.5Q913 -23 908 -29Q899 -37 860 -41L755 -54Q700 -60 619.0 -60.5Q538 -61 524 -55Q510 -51 486 -27Q472 -12 466.0 0.0Q460 12 451 37Q440 78 440 110Q440 138 433.0 138.0Q426 138 373 113Q328 90 314.5 90.0Q301 90 279.5 82.5Q258 75 244.5 75.0Q231 75 212 68Q198 62 189.0 63.0Q180 64 153 73Q135 79 119.0 88.0Q103 97 93.5 105.5Q84 114 89 118Q91 121 153.5 126.0Q216 131 238 135L317 150Q373 162 411 170L448 178L450 215Q450 251 446 254Q441 257 416.5 250.5Q392 244 383 239Q373 232 357 232Q328 232 287 211Q278 205 271.0 203.5Q264 202 261.5 205.5Q259 209 261 218Q264 227 256.0 242.0Q248 257 252.5 262.0Q257 267 278 267Q300 267 336.5 274.0Q373 281 394.0 283.5Q415 286 429 292L441 297L425 314ZM538 447Q563 440 568.0 435.0Q573 430 573 415Q572 397 568.5 394.0Q565 391 553 397Q542 404 528 394Q475 359 391 355Q350 352 339 346Q332 344 310.5 341.0Q289 338 269.5 338.5Q250 339 250 342Q250 352 318.5 381.5Q387 411 430 419Q448 423 478.5 440.5Q509 458 513.5 456.0Q518 454 538 447ZM434 617Q440 604 455 594L472 584L450 572Q427 559 408 551Q377 538 369.5 532.5Q362 527 360 517Q359 505 367 485Q371 475 373.5 464.5Q376 454 375.0 448.5Q374 443 370 443Q359 443 338.0 465.5Q317 488 310 506Q299 533 274.5 551.0Q250 569 250.0 573.0Q250 577 278 582Q345 589 360 610Q369 621 391 624Q418 628 424.0 627.0Q430 626 434 617ZM765 621Q765 611 760.5 607.5Q756 604 738 600Q647 577 647 575Q647 570 666.5 561.0Q686 552 695 535Q700 523 700.0 518.5Q700 514 695 506Q688 493 688.0 487.0Q688 481 678 468Q671 458 668.0 458.0Q665 458 658 464Q649 472 640.5 495.5Q632 519 632 535Q632 551 621.5 565.0Q611 579 601 579Q597 579 594.0 580.5Q591 582 593 584Q594 590 643.5 609.5Q693 629 717 633Q747 639 756.0 637.0Q765 635 765 621ZM226 626Q233 618 232.0 614.0Q231 610 223 597Q210 580 205 555Q178 451 160 433Q149 419 149.0 414.0Q149 409 131 393L114 376L105 388Q83 421 125 467Q140 484 167 589Q181 646 186.0 649.5Q191 653 205.0 645.5Q219 638 226 626ZM565 649Q574 646 575.5 639.5Q577 633 574 607Q567 521 564.5 508.5Q562 496 548 485L531 472L518 484Q507 493 507.0 500.0Q507 507 518 530Q530 552 532.0 588.0Q534 624 524 638Q517 646 516 653Q516 657 523.0 658.0Q530 659 541.0 656.0Q552 653 565 649Z"/></g></svg>